<svg id="Layer_1" data-name="Layer 1" xmlns="http://www.w3.org/2000/svg" viewBox="0 0 22.48 22"><defs><style>.cls-1{fill:none;stroke:#666;stroke-miterlimit:10;}.cls-2{fill:#666;}</style></defs><polyline class="cls-1" points="19.5 13.19 19.5 21.5 2.5 21.5 2.5 13"/><polyline class="cls-1" points="2.5 9 2.5 0.5 19.5 0.5 19.5 8.81"/><path class="cls-1" d="M22.83,12s-4.74,5.78-10.6,5.78S1.64,12,1.64,12,6.38,6.22,12.23,6.22,22.83,12,22.83,12Z" transform="translate(-0.99 -1)"/><circle class="cls-1" cx="11.24" cy="11" r="5.31"/><path class="cls-2" d="M14.89,11.18a1.41,1.41,0,0,1-.58.13,1.38,1.38,0,0,1-1.38-1.38,1.32,1.32,0,0,1,.12-.57h0A2.77,2.77,0,1,0,15,12a2.64,2.64,0,0,0-.15-.89Z" transform="translate(-0.99 -1)"/><path class="cls-1" d="M20.5,14.19" transform="translate(-0.99 -1)"/><path class="cls-1" d="M20.5,9.81" transform="translate(-0.99 -1)"/></svg>