<svg id="Layer_2" data-name="Layer 2" xmlns="http://www.w3.org/2000/svg" viewBox="0 0 23.14 23.14"><defs><style>.cls-1{fill:none;stroke:#666;stroke-miterlimit:10;}</style></defs><path class="cls-1" d="M7.2,19.51h0L5.51,21.15,2.73,18.33l1.68-1.65A17.12,17.12,0,0,1,3.29,13.9l-2.35,0,0-4,2.36,0A16.9,16.9,0,0,1,4.49,7.2L2.85,5.51,5.67,2.73,7.32,4.41A17.12,17.12,0,0,1,10.1,3.29l0-2.35,4,0,0,2.36A16.14,16.14,0,0,1,16.81,4.5l1.68-1.65,2.78,2.82L19.59,7.32l1.12,2.78,2.35,0,0,4-2.36,0a16.9,16.9,0,0,1-1.16,2.74h0l1.65,1.68-2.82,2.78-1.65-1.68a17.12,17.12,0,0,1-2.78,1.12l0,2.35-4,0,0-2.36A16.9,16.9,0,0,1,7.2,19.51Z" transform="translate(-0.43 -0.43)"/><circle class="cls-1" cx="11.57" cy="11.57" r="3.5"/></svg>