<svg id="Layer_2" data-name="Layer 2" xmlns="http://www.w3.org/2000/svg" viewBox="0 0 23.31 23.31"><defs><style>.cls-1{fill:none;stroke:#666;stroke-miterlimit:10;}</style></defs><path class="cls-1" d="M7.22,19.62h0L5.53,21.3,2.7,18.47l1.68-1.68A17.19,17.19,0,0,1,3.22,14H.84V10H3.22A16.3,16.3,0,0,1,4.38,7.22L2.7,5.53,5.53,2.7,7.21,4.38A17.19,17.19,0,0,1,10,3.22V.84h4V3.22a16.43,16.43,0,0,1,2.79,1.16L18.47,2.7,21.3,5.53,19.62,7.21,20.78,10h2.38v4H20.78a16.3,16.3,0,0,1-1.16,2.78h0l1.68,1.68L18.47,21.3l-1.68-1.68h0A17.19,17.19,0,0,1,14,20.78v2.38H10V20.78A16.3,16.3,0,0,1,7.22,19.62Z" transform="translate(-0.34 -0.34)"/><circle class="cls-1" cx="11.66" cy="11.66" r="4"/></svg>