<svg id="Layer_3" data-name="Layer 3" xmlns="http://www.w3.org/2000/svg" viewBox="0 0 23.46 23.46"><defs><style>.cls-1{fill:none;stroke:#666;stroke-miterlimit:10;}</style></defs><path class="cls-1" d="M6.36,17.64A47.2,47.2,0,0,1,.59,9.81S2.17,5.08,6.1,4.3L9.2,7.39S9.25,9,6.1,10.59c0,0,.32,1.59,3,4.35h0c2.76,2.64,4.35,3,4.35,3,1.57-3.15,3.2-3.1,3.2-3.1l3.09,3.1c-.78,3.93-5.51,5.51-5.51,5.51a47.2,47.2,0,0,1-7.83-5.77Z" transform="translate(-0.04 -0.5)"/><path class="cls-1" d="M12,1A11,11,0,0,1,23,12" transform="translate(-0.04 -0.5)"/><path class="cls-1" d="M12,3.28A8.71,8.71,0,0,1,20.72,12" transform="translate(-0.04 -0.5)"/><path class="cls-1" d="M12,5.55A6.45,6.45,0,0,1,18.45,12" transform="translate(-0.04 -0.5)"/><path class="cls-1" d="M11.17,12.83" transform="translate(-0.04 -0.5)"/></svg>