<svg id="Layer_3" data-name="Layer 3" xmlns="http://www.w3.org/2000/svg" viewBox="0 0 22.5 22.93"><defs><style>.cls-1{fill:none;stroke:#404040;stroke-miterlimit:10;}</style></defs><path class="cls-1" d="M17.36,23.3l4.95-4.95L18.06,14.1l-4.24,2.83a11.66,11.66,0,0,1-6.36-6.36l2.83-4.24L6,2.08,1.09,7A31.16,31.16,0,0,0,17.36,23.3Z" transform="translate(-0.51 -0.96)"/><path class="cls-1" d="M12.66,5.63a5.85,5.85,0,0,1,5.48,6.09" transform="translate(-0.51 -0.96)"/><path class="cls-1" d="M12.7,3.54a7.92,7.92,0,0,1,7.52,8.25" transform="translate(-0.51 -0.96)"/><path class="cls-1" d="M12.67,1.46A10,10,0,0,1,22.3,11.88" transform="translate(-0.51 -0.96)"/></svg>