<svg id="Layer_3" data-name="Layer 3" xmlns="http://www.w3.org/2000/svg" viewBox="0 0 22.65 22.65"><defs><style>.cls-1{fill:none;stroke:#666;stroke-miterlimit:10;}</style></defs><path class="cls-1" d="M6,18A37.8,37.8,0,0,1,1.4,11.72S2.66,7.94,5.81,7.31L8.28,9.79s.05,1.3-2.47,2.56c0,0,.25,1.27,2.36,3.48h0c2.21,2.11,3.48,2.36,3.48,2.36,1.26-2.52,2.56-2.47,2.56-2.47l2.48,2.47c-.63,3.15-4.41,4.41-4.41,4.41A37.8,37.8,0,0,1,6,18Z" transform="translate(-0.85 -0.5)"/><path class="cls-1" d="M11,1A12,12,0,0,1,23,13" transform="translate(-0.85 -0.5)"/><path class="cls-1" d="M11,3.48A9.52,9.52,0,0,1,20.52,13" transform="translate(-0.85 -0.5)"/><path class="cls-1" d="M11,6a7,7,0,0,1,7,7" transform="translate(-0.85 -0.5)"/><path class="cls-1" d="M11.17,12.83" transform="translate(-0.85 -0.5)"/></svg>