<svg id="Layer_6" data-name="Layer 6" xmlns="http://www.w3.org/2000/svg" viewBox="0 0 23.31 23.31"><defs><style>.cls-1{fill:none;stroke:#404040;stroke-miterlimit:10;}</style></defs><path class="cls-1" d="M16.47,4.49a8.78,8.78,0,0,1,2.82,2.7L21.7,6.13l1.17,2.66L20.46,9.85a8.59,8.59,0,0,1,.08,3.91l2.46,1-1.06,2.71-2.45-1a8.78,8.78,0,0,1-2.7,2.82l1.06,2.41-2.66,1.17-1.06-2.41a8.55,8.55,0,0,1-3.9.08L9.27,23,6.56,21.94l1-2.45a8.78,8.78,0,0,1-2.82-2.7L2.28,17.85,1.11,15.19l2.41-1.06a8.69,8.69,0,0,1-.08-3.9L1,9.27,2,6.56l2.45,1a8.78,8.78,0,0,1,2.7-2.82L6.13,2.28,8.79,1.11,9.85,3.52a8.73,8.73,0,0,1,3.91-.08l1-2.46L17.42,2Z" transform="translate(-0.33 -0.33)"/><circle class="cls-1" cx="11.66" cy="11.66" r="4"/></svg>